<?xml version="1.0" standalone="no"?>
<!DOCTYPE svg PUBLIC "-//W3C//DTD SVG 20010904//EN"
 "http://www.w3.org/TR/2001/REC-SVG-20010904/DTD/svg10.dtd">
<svg version="1.0" xmlns="http://www.w3.org/2000/svg"
 width="128.000000pt" height="128.000000pt" viewBox="0 0 128.000000 128.000000"
 preserveAspectRatio="xMidYMid meet">

<g transform="translate(0.000000,128.000000) scale(0.100000,-0.100000)"
fill="#000000" stroke="none">
<path d="M185 1185 c-49 -17 -81 -53 -95 -105 -7 -27 -10 -184 -8 -463 3 -404
4 -424 23 -457 12 -19 36 -43 55 -55 34 -19 50 -20 480 -20 430 0 446 1 480
20 19 12 43 36 55 55 19 34 20 50 20 480 0 430 -1 446 -20 480 -12 19 -36 43
-55 55 -34 19 -53 20 -465 22 -353 2 -437 0 -470 -12z m730 -295 l0 -25 -273
-3 c-236 -2 -273 0 -278 13 -4 8 -4 22 0 30 5 13 42 15 278 13 l273 -3 0 -25z
m0 -250 l0 -25 -273 -3 c-236 -2 -273 0 -278 13 -4 8 -4 22 0 30 5 13 42 15
278 13 l273 -3 0 -25z m0 -250 l0 -25 -273 -3 c-236 -2 -273 0 -278 13 -4 8
-4 22 0 30 5 13 42 15 278 13 l273 -3 0 -25z"/>
</g>
</svg>
