<?xml version="1.0" standalone="no"?>
<!DOCTYPE svg PUBLIC "-//W3C//DTD SVG 20010904//EN"
 "http://www.w3.org/TR/2001/REC-SVG-20010904/DTD/svg10.dtd">
<svg version="1.0" xmlns="http://www.w3.org/2000/svg"
 width="40.000000pt" height="100.000000pt" viewBox="0 0 40.000000 100.000000"
 preserveAspectRatio="xMidYMid meet">

<g transform="translate(0.000000,100.000000) scale(0.100000,-0.100000)"
fill="#000000" stroke="none">
<path d="M15 980 c17 -7 17 -9 3 -9 -17 -1 -18 -31 -18 -486 l0 -485 200 0
200 0 0 479 0 480 -37 4 -38 4 38 1 c20 1 37 7 37 12 0 6 -74 10 -202 9 -123
0 -195 -4 -183 -9z m160 -80 c25 0 46 5 49 13 3 6 4 -10 3 -38 -2 -44 -5 -50
-25 -53 -18 -3 -23 2 -28 27 -7 32 -37 44 -47 19 -3 -7 -5 3 -5 22 0 19 2 29
5 23 3 -8 23 -13 48 -13z m23 -132 c2 -19 -2 -28 -17 -33 -33 -10 -61 3 -61
29 0 31 9 37 45 34 24 -2 31 -8 33 -30z m0 -78 c-3 -33 -5 -35 -38 -35 -29 0
-36 4 -38 23 -3 18 -8 23 -23 19 -13 -4 -19 0 -19 11 0 14 11 17 60 17 l61 0
-3 -35z m2 -75 c0 -10 -10 -15 -30 -15 -21 0 -30 -5 -30 -16 0 -12 7 -15 30
-12 19 3 30 0 30 -8 0 -7 -17 -14 -40 -16 l-41 -4 3 36 c3 31 7 36 38 41 19 4
36 7 38 8 1 0 2 -6 2 -14z m30 -99 c0 -10 -16 -15 -55 -18 -38 -2 -55 1 -55 9
0 7 20 13 53 16 28 2 53 4 55 5 1 1 2 -4 2 -12z m-66 -58 c9 -12 19 -18 23
-14 4 4 1 11 -7 16 -8 5 -11 12 -8 15 12 12 28 -6 28 -31 0 -19 -5 -24 -24
-24 -13 0 -31 -3 -39 -6 -12 -4 -15 3 -15 30 0 42 19 48 42 14z m36 -100 c0
-16 -4 -28 -10 -28 -5 0 -10 7 -10 16 0 12 -7 15 -30 12 -23 -3 -30 -1 -30 11
0 12 10 16 40 16 37 0 40 -2 40 -27z m-5 -208 c10 -11 16 -20 13 -20 -3 0 -13
9 -23 20 -10 11 -16 20 -13 20 3 0 13 -9 23 -20z m-55 -20 c-24 -15 -36 -11
-14 4 10 8 21 12 24 10 2 -3 -2 -9 -10 -14z m134 -75 c-4 -8 -8 -15 -10 -15
-2 0 -4 7 -4 15 0 8 4 15 10 15 5 0 7 -7 4 -15z"/>
<path d="M182 863 c5 -26 38 -29 38 -4 0 15 -6 21 -21 21 -14 0 -19 -5 -17
-17z"/>
<path d="M130 765 c0 -10 10 -15 30 -15 20 0 30 5 30 15 0 10 -10 15 -30 15
-20 0 -30 -5 -30 -15z"/>
<path d="M135 690 c-8 -13 20 -24 41 -16 20 8 9 26 -16 26 -10 0 -22 -5 -25
-10z"/>
<path d="M140 450 c0 -5 5 -10 11 -10 5 0 7 5 4 10 -3 6 -8 10 -11 10 -2 0 -4
-4 -4 -10z"/>
</g>
</svg>
